PathFileType	4	(X/Y/Z)	/Users/itak/Documents/Research/Walk-IL/dataset/trc/00262_00009.trc
DataRate	CameraRate	NumFrames	NumMarkers	Units	OrigDataRate	OrigDataStartFrame	OrigNumFrames
100.000000	100.000000	4	53	mm	100.000000	52	418
Frame#	Time	RPSI			LPSI			L3			STRN			T10			C7			CLAV			RBAK			LBAK			LSHO			LUPA			LAEL			LAOL			LWTS			LWPS			LFRA			LIFD			LHPS			LHTS			RSHO			RUPA			RAEL			RAOL			RWTS			RWPS			RFRA			RIFD			RHTS			RHPS			RBHD			LFHD			RFHD			LBHD			LHIP			RHIP			RASI			LASI			LKNE			LTHI			LANK			LTIP			LTOE			LMT1			LMT5			LHEE			RKNE			RTHI			RANK			RTIP			RTOE			RMT1			RMT5			RHEE			
		X1	Y1	Z1	X2	Y2	Z2	X3	Y3	Z3	X4	Y4	Z4	X5	Y5	Z5	X6	Y6	Z6	X7	Y7	Z7	X8	Y8	Z8	X9	Y9	Z9	X10	Y10	Z10	X11	Y11	Z11	X12	Y12	Z12	X13	Y13	Z13	X14	Y14	Z14	X15	Y15	Z15	X16	Y16	Z16	X17	Y17	Z17	X18	Y18	Z18	X19	Y19	Z19	X20	Y20	Z20	X21	Y21	Z21	X22	Y22	Z22	X23	Y23	Z23	X24	Y24	Z24	X25	Y25	Z25	X26	Y26	Z26	X27	Y27	Z27	X28	Y28	Z28	X29	Y29	Z29	X30	Y30	Z30	X31	Y31	Z31	X32	Y32	Z32	X33	Y33	Z33	X34	Y34	Z34	X35	Y35	Z35	X36	Y36	Z36	X37	Y37	Z37	X38	Y38	Z38	X39	Y39	Z39	X40	Y40	Z40	X41	Y41	Z41	X42	Y42	Z42	X43	Y43	Z43	X44	Y44	Z44	X45	Y45	Z45	X46	Y46	Z46	X47	Y47	Z47	X48	Y48	Z48	X49	Y49	Z49	X50	Y50	Z50	X51	Y51	Z51	X52	Y52	Z52	X53	Y53	Z53	

53	0.52	-1350.763305664062	1023.925048828125	733.76708984375	-1344.978393554688	1027.787719726562	613.0042114257812	-1347.3994140625	1115.069213867188	650.031005859375	-1080.325805664062	1281.720581054688	660.0853881835938	-1339.991577148438	1240.906127929688	651.518310546875	-1256.32080078125	1495.766723632812	650.9244995117188	-1095.356567382812	1402.048095703125	661.9703369140625	-1345.64892578125	1363.577758789062	719.6599731445312	-1273.657958984375	1461.360961914062	539.3575439453125	-1181.042846679688	1456.736694335938	489.5333251953125	-1214.489379882812	1343.1728515625	405.557373046875	-1214.153930664062	1131.902954101562	376.521728515625	-1291.531860351562	1121.139526367188	416.4794006347656	-1139.61572265625	895.4330444335938	446.6707763671875	-1156.533447265625	878.32177734375	365.3588256835938	-1195.502563476562	1023.429077148438	366.1343688964844	-1141.098022460938	700.666259765625	442.9437866210938	-1143.570190429688	789.0004272460938	373.9625549316406	-1106.915283203125	793.6370849609375	430.8717956542969	-1211.200805664062	1453.8359375	823.4884643554688	-1240.919311523438	1391.703369140625	888.4652709960938	-1292.8837890625	1116.30859375	930.6470947265625	-1311.763671875	1110.5302734375	837.2339477539062	-1173.854858398438	886.7140502929688	911.031494140625	-1236.569702148438	880.457763671875	969.8593139648438	-1274.823364257812	1046.168212890625	948.3853149414062	-1185.549194335938	693.5021362304688	908.424560546875	-1151.657348632812	762.1644897460938	933.8529663085938	-1209.21337890625	769.039794921875	978.1122436523438	-1207.947021484375	1644.02685546875	703.0946044921875	-1003.311706542969	1678.161376953125	609.9364624023438	-1005.434692382812	1681.706665039062	709.7688598632812	-1160.51123046875	1644.211547851562	570.3176879882812	-1247.154907226562	958.491455078125	473.2614440917969	-1251.19921875	990.383056640625	840.3446655273438	-1153.696044921875	1024.551513671875	801.4658203125	-1142.933715820312	996.1331787109375	520.6233520507812	-1293.316650390625	482.6390991210938	535.55908203125	-1267.248779296875	623.5252075195312	503.330322265625	-1494.439575195312	39.61298751831055	566.2482299804688	-1398.405639648438	274.0636291503906	540.0760498046875	-1278.751098632812	47.04003524780273	613.2002563476562	-1345.01416015625	40.56671142578125	658.0604248046875	-1367.674926757812	40.54641723632812	543.064453125	-1557.169677734375	51.98941040039062	618.2032470703125	-1046.255737304688	538.0478515625	834.4589233398438	-1139.08203125	789.86181640625	860.5758056640625	-997.9228515625	39.69145202636719	853.1528930664062	-1005.101684570312	421.77490234375	826.4625854492188	-812.4952392578125	108.9105987548828	781.7037963867188	-868.2011108398438	85.70566558837891	745.3527221679688	-890.2411499023438	64.06391143798828	858.9070434570312	-1044.363891601562	62.27872085571289	808.4934692382812	
54	0.53	-1343.440673828125	1022.550598144531	736.6243896484375	-1338.278564453125	1026.44921875	615.7425537109375	-1340.585327148438	1113.412231445312	652.6954345703125	-1073.896606445312	1280.667236328125	661.2913208007812	-1333.43310546875	1239.318969726562	653.92431640625	-1250.269287109375	1494.396850585938	652.8031005859375	-1089.12353515625	1400.941284179688	663.2275390625	-1339.084594726562	1362.036254882812	721.9295043945312	-1268.07373046875	1459.8955078125	541.3182373046875	-1175.655395507812	1455.431640625	491.101318359375	-1209.297119140625	1341.75	407.2749328613281	-1208.774291992188	1130.612915039062	378.1325988769531	-1285.92333984375	1119.666381835938	418.5117492675781	-1133.256469726562	894.4180908203125	447.8162231445312	-1150.482299804688	877.2423095703125	366.6392211914062	-1189.898559570312	1022.190795898438	367.5986328125	-1134.274047851562	699.5601196289062	443.9762573242188	-1137.279052734375	787.869140625	375.2217102050781	-1100.1826171875	792.760009765625	431.8173522949219	-1204.42626953125	1452.600463867188	825.1834716796875	-1233.840209960938	1390.458251953125	890.3090209960938	-1285.641479492188	1115.0634765625	932.6365966796875	-1305.019653320312	1109.370971679688	839.3233642578125	-1166.793334960938	885.4398193359375	912.01416015625	-1229.474365234375	879.0341796875	971.2523803710938	-1267.556884765625	1044.849609375	950.1786499023438	-1179.296020507812	692.0484008789062	909.2357177734375	-1145.07080078125	760.6111450195312	934.4965209960938	-1202.2421875	767.5482177734375	979.1870727539062	-1201.869384765625	1642.81884765625	704.749755859375	-997.609130859375	1677.1875	610.8167114257812	-999.4218139648438	1680.718017578125	710.6708984375	-1154.884765625	1643.051147460938	571.8410034179688	-1241.244506835938	957.2523193359375	475.5	-1242.1494140625	989.0776977539062	842.8021850585938	-1146.052734375	1023.273193359375	802.7809448242188	-1136.701049804688	994.98095703125	521.9375	-1288.818359375	481.9070739746094	536.3386840820312	-1262.195678710938	622.7442626953125	504.4496765136719	-1494.219604492188	40.38471984863281	565.7992553710938	-1395.903076171875	274.2684936523438	540.19775390625	-1278.861694335938	46.94571685791016	613.0963745117188	-1345.074951171875	40.74222946166992	657.679443359375	-1367.69189453125	40.35442733764648	542.7628173828125	-1557.042724609375	53.5806884765625	617.3582153320312	-1038.302612304688	536.4075927734375	833.7594604492188	-1130.553344726562	788.072998046875	861.6452026367188	-994.9309692382812	38.486328125	852.6831665039062	-997.8650512695312	419.8214416503906	825.293212890625	-808.693115234375	101.6186218261719	777.9383544921875	-865.4641723632812	79.85411071777344	742.385009765625	-886.4522094726562	59.70204925537109	856.4300537109375	-1041.839233398438	60.77287673950195	807.9610595703125	
55	0.54	-1336.061401367188	1021.312438964844	739.456298828125	-1331.447021484375	1025.173950195312	618.466796875	-1333.718627929688	1111.844116210938	655.3501586914062	-1067.378295898438	1279.6962890625	662.51025390625	-1326.783325195312	1237.795288085938	656.406005859375	-1244.142211914062	1493.101806640625	654.7589111328125	-1082.814453125	1399.914794921875	664.500732421875	-1332.430419921875	1360.58447265625	724.2964477539062	-1262.441528320312	1458.509765625	543.3515014648438	-1170.255004882812	1454.2158203125	492.7039794921875	-1204.17333984375	1340.407470703125	409.0552368164062	-1203.471923828125	1129.401245117188	379.7878723144531	-1280.328125	1118.268920898438	420.6613464355469	-1126.835327148438	893.5180053710938	448.9187622070312	-1144.472412109375	876.2698974609375	367.8981323242188	-1184.372192382812	1021.041015625	369.0879211425781	-1127.377563476562	698.6414184570312	444.9828491210938	-1130.932006835938	786.8468017578125	376.4472351074219	-1093.355224609375	792.0217895507812	432.6820678710938	-1197.508422851562	1451.438232421875	826.9260864257812	-1226.582885742188	1389.27392578125	892.2073364257812	-1278.126220703125	1113.876831054688	934.744140625	-1298.104248046875	1108.264770507812	841.5508422851562	-1159.635375976562	884.177978515625	913.041015625	-1222.109619140625	877.6739501953125	972.7176513671875	-1260.001098632812	1043.590454101562	952.0772705078125	-1172.927368164062	690.62890625	910.078857421875	-1138.324340820312	759.0939331054688	935.1365966796875	-1195.034790039062	766.1212158203125	980.3228759765625	-1195.700317382812	1641.6953125	706.4692993164062	-991.8489990234375	1676.312133789062	611.7064208984375	-993.3103637695312	1679.810668945312	711.5856323242188	-1149.19091796875	1641.9873046875	573.4155883789062	-1235.13134765625	956.0343627929688	477.7831726074219	-1233.006591796875	987.9696044921875	845.3487548828125	-1138.411254882812	1022.159790039062	804.2015991210938	-1130.274780273438	993.8737182617188	523.37451171875	-1284.040405273438	481.2186279296875	537.2044677734375	-1256.862548828125	621.9840698242188	505.6614074707031	-1493.9873046875	41.35489273071289	565.3240966796875	-1393.22216796875	274.5720520019531	540.3533935546875	-1278.936401367188	46.82760238647461	612.9962158203125	-1345.119140625	40.92523956298828	657.2969970703125	-1367.6787109375	40.18657302856445	542.4592895507812	-1556.852294921875	55.33322525024414	616.537841796875	-1030.02197265625	535.103759765625	833.0097045898438	-1121.871459960938	786.5196533203125	862.7639770507812	-992.81884765625	37.69987487792969	852.2101440429688	-990.494384765625	418.0984802246094	824.11865234375	-805.383056640625	93.65093231201172	774.5736083984375	-863.196533203125	73.62348937988281	739.7498168945312	-883.4891357421875	55.30595016479492	854.326416015625	-1040.194213867188	59.68558120727539	807.42529296875	
56	0.55	-1328.64453125	1020.218139648438	742.2194213867188	-1324.494018554688	1023.985595703125	621.1470947265625	-1326.8193359375	1110.409912109375	657.9577026367188	-1060.776977539062	1278.829833984375	663.74658203125	-1320.062133789062	1236.37744140625	658.9381713867188	-1237.94140625	1491.910522460938	656.7786865234375	-1076.433227539062	1398.992919921875	665.7905883789062	-1325.69482421875	1359.255004882812	726.742919921875	-1256.753295898438	1457.2314453125	545.4442138671875	-1164.830688476562	1453.115966796875	494.3391723632812	-1199.111083984375	1339.180419921875	410.8898010253906	-1198.263305664062	1128.300903320312	381.4930114746094	-1274.761108398438	1116.9814453125	422.937255859375	-1120.359985351562	892.76220703125	449.9750061035156	-1138.524291992188	875.4317016601562	369.1313171386719	-1178.944580078125	1020.0126953125	370.6046447753906	-1120.34814453125	697.9282836914062	445.9675598144531	-1124.52294921875	785.986083984375	377.6280822753906	-1086.453369140625	791.449462890625	433.4587097167969	-1190.460571289062	1450.378540039062	828.7086791992188	-1219.160766601562	1388.18017578125	894.14990234375	-1270.334716796875	1112.774291992188	936.9544677734375	-1291.017333984375	1107.240478515625	843.9100341796875	-1152.409545898438	882.9349365234375	914.1019897460938	-1214.468627929688	876.4105834960938	974.2532958984375	-1252.153564453125	1042.420288085938	954.0677490234375	-1166.4423828125	689.2779541015625	910.9617309570312	-1131.417358398438	757.6400756835938	935.7789916992188	-1187.5908203125	764.7867431640625	981.5223388671875	-1189.43505859375	1640.684204101562	708.2484741210938	-986.02685546875	1675.547607421875	612.6051025390625	-987.08837890625	1678.99951171875	712.5101928710938	-1143.429809570312	1641.043334960938	575.035888671875	-1228.806884765625	954.8770751953125	480.0709838867188	-1223.92578125	987.07763671875	847.9280395507812	-1130.792358398438	1021.253173828125	805.7448120117188	-1123.652587890625	992.8392333984375	524.9520263671875	-1278.951904296875	480.58642578125	538.1590576171875	-1251.233520507812	621.2676391601562	506.9683532714844	-1493.728881835938	42.55555725097656	564.815185546875	-1390.343994140625	274.9851379394531	540.5494384765625	-1278.964233398438	46.69296646118164	612.8988647460938	-1345.134521484375	41.12682723999023	656.91943359375	-1367.61474609375	40.048828125	542.1539306640625	-1556.592163085938	57.29193878173828	615.7373046875	-1021.431274414062	534.1791381835938	832.2587890625	-1113.072631835938	785.2749633789062	863.92138671875	-991.353271484375	37.29621124267578	851.7753295898438	-982.9801635742188	416.6488037109375	822.9904174804688	-802.4280395507812	85.47489166259766	771.7476196289062	-861.2407836914062	67.4334716796875	737.5941162109375	-881.2044677734375	51.17060089111328	852.7294311523438	-1039.195678710938	58.98107147216797	806.9276123046875	
